<svg id="Capa_1" enable-background="new 0 0 505.011 505.011" height="512" viewBox="0 0 505.011 505.011" width="512" xmlns="http://www.w3.org/2000/svg"><path d="m405.652 505.011c5.522 0 10-4.478 10-10v-33.222c0-12.84-20-12.858-20 0v23.222h-39.073v-163.193c0-5.522-4.478-10-10-10h-54.237c-12.84 0-12.858 20 0 20h44.237v153.192h-168.147v-153.192h44.182c12.84 0 12.858-20 0-20h-54.182c-5.522 0-10 4.478-10 10v163.192h-39.073v-208.044h286.294v103.982c0 12.84 20 12.858 20 0v-104.162c19.349-1.936 32.889-19.064 32.206-38.097 0-18.446-14.025-33.674-31.971-35.589v-30.511c0-16.009-5.707-31.711-15.833-44.021 15.563-25.069-3.191-58.448-32.565-58.448-21.122 0-38.307 17.185-38.307 38.307 0 28.252 31.127 47.176 56.215 33.848 6.713 8.598 10.489 19.351 10.489 30.315v30.304h-49.65c-3.313-34.768-25.609-64.08-56.379-77.43 18.306-12.321 30.373-33.231 30.373-56.908.001-37.802-30.752-68.556-68.553-68.556s-68.554 30.754-68.554 68.555c0 23.962 12.367 45.079 31.044 57.339-30.261 13.543-52.117 42.602-55.395 76.999h-49.415v-30.304c0-10.964 3.776-21.717 10.489-30.315 25.081 13.324 56.215-5.588 56.215-33.848 0-21.122-17.185-38.307-38.307-38.307-29.365 0-48.132 33.372-32.565 58.448-10.126 12.311-15.833 28.013-15.833 44.021v30.484c-19.349 1.936-32.889 19.064-32.206 38.097 0 18.527 14.147 33.809 32.206 35.616v218.225c0 5.522 4.478 10 10 10h306.295zm-38.162-378.279c-10.095 0-18.307-8.212-18.307-18.307s8.212-18.307 18.307-18.307 18.307 8.212 18.307 18.307-8.212 18.307-18.307 18.307zm-229.734-36.613c10.095 0 18.307 8.212 18.307 18.307s-8.212 18.307-18.307 18.307-18.307-8.212-18.307-18.307 8.212-18.307 18.307-18.307zm65.368-21.564c0-26.773 21.781-48.555 48.554-48.555s48.555 21.781 48.555 48.555c0 26.772-21.781 48.554-48.555 48.554-26.773-.001-48.554-21.782-48.554-48.554zm113.146 105.496c5.148 8.64 8.59 18.409 9.857 28.841h-147.243c1.183-9.737 4.26-18.897 8.851-27.1 13.048-23.312 38.049-37.383 64.765-37.383h.043c25.992 0 50.422 13.313 63.727 35.642zm-223.322 82.915c-20.589 0-20.967-34.073 0-34.073h319.114c20.964 0 20.596 34.073 0 34.073z"/><path d="m260.822 316.265c-3.047-4.526-9.323-5.775-13.87-2.76-4.546 3.015-5.764 9.334-2.76 13.859 3.013 4.539 9.332 5.789 13.86 2.771 4.526-3.017 5.789-9.347 2.77-13.87z"/><path d="m415.122 417.265c-2.065-5.042-8.04-7.488-13.06-5.41-5.037 2.085-7.496 8.022-5.41 13.06 2.082 5.029 8.03 7.499 13.06 5.41 5.023-2.087 7.507-8.031 5.41-13.06z"/></svg>